<svg width="324" height="30" viewBox="0 0 324 30" fill="none" xmlns="http://www.w3.org/2000/svg">
<g clip-path="url(#clip0_5_30)">
<path d="M77.8 29L90.4 0.999975H95.52L108.16 29H102.72L91.88 3.75998H93.96L83.16 29H77.8ZM83.6 22.52L85 18.44H100.12L101.52 22.52H83.6Z" fill="#111111"/>
<path d="M111.721 29V0.999975H116.921V24.6H131.561V29H111.721Z" fill="#111111"/>
<path d="M135.666 29V0.999975H147.186C149.666 0.999975 151.786 1.39998 153.546 2.19998C155.333 2.99998 156.706 4.14664 157.666 5.63997C158.626 7.13331 159.106 8.90664 159.106 10.96C159.106 13.0133 158.626 14.7866 157.666 16.28C156.706 17.7733 155.333 18.92 153.546 19.72C151.786 20.52 149.666 20.92 147.186 20.92H138.546L140.866 18.48V29H135.666ZM140.866 19.04L138.546 16.52H146.946C149.24 16.52 150.96 16.04 152.106 15.08C153.28 14.0933 153.866 12.72 153.866 10.96C153.866 9.17331 153.28 7.79998 152.106 6.83998C150.96 5.87998 149.24 5.39998 146.946 5.39998H138.546L140.866 2.83998V19.04Z" fill="#111111"/>
<path d="M183.979 0.999975H189.179V29H183.979V0.999975ZM169.499 29H164.299V0.999975H169.499V29ZM184.379 17H169.059V12.56H184.379V17Z" fill="#111111"/>
<path d="M192.722 29L205.322 0.999975H210.442L223.082 29H217.642L206.802 3.75998H208.882L198.082 29H192.722ZM198.522 22.52L199.922 18.44H215.042L216.442 22.52H198.522Z" fill="#111111"/>
<path d="M250.657 29.4C248.524 29.4 246.537 29.0533 244.697 28.36C242.884 27.64 241.297 26.64 239.937 25.36C238.604 24.0533 237.564 22.52 236.817 20.76C236.071 19 235.697 17.08 235.697 15C235.697 12.92 236.071 11 236.817 9.23998C237.564 7.47998 238.617 5.95998 239.977 4.67998C241.337 3.37331 242.924 2.37331 244.737 1.67998C246.551 0.959975 248.537 0.599976 250.697 0.599976C252.991 0.599976 255.084 0.999976 256.977 1.79998C258.871 2.57331 260.471 3.73331 261.777 5.27997L258.417 8.43998C257.404 7.34664 256.271 6.53331 255.017 5.99998C253.764 5.43998 252.404 5.15998 250.937 5.15998C249.471 5.15998 248.124 5.39998 246.897 5.87998C245.697 6.35998 244.644 7.03998 243.737 7.91998C242.857 8.79998 242.164 9.83998 241.657 11.04C241.177 12.24 240.937 13.56 240.937 15C240.937 16.44 241.177 17.76 241.657 18.96C242.164 20.16 242.857 21.2 243.737 22.08C244.644 22.96 245.697 23.64 246.897 24.12C248.124 24.6 249.471 24.84 250.937 24.84C252.404 24.84 253.764 24.5733 255.017 24.04C256.271 23.48 257.404 22.64 258.417 21.52L261.777 24.72C260.471 26.24 258.871 27.4 256.977 28.2C255.084 29 252.977 29.4 250.657 29.4Z" fill="#111111"/>
<path d="M279.245 29V24.68L278.965 23.76V16.2C278.965 14.7333 278.525 13.6 277.645 12.8C276.765 11.9733 275.431 11.56 273.645 11.56C272.445 11.56 271.258 11.7466 270.085 12.12C268.938 12.4933 267.965 13.0133 267.165 13.68L265.205 10.04C266.351 9.15998 267.711 8.50664 269.285 8.07998C270.885 7.62664 272.538 7.39998 274.245 7.39998C277.338 7.39998 279.725 8.14664 281.405 9.63998C283.111 11.1066 283.965 13.3866 283.965 16.48V29H279.245ZM272.525 29.28C270.925 29.28 269.525 29.0133 268.325 28.48C267.125 27.92 266.191 27.16 265.525 26.2C264.885 25.2133 264.565 24.1066 264.565 22.88C264.565 21.68 264.845 20.6 265.405 19.64C265.991 18.68 266.938 17.92 268.245 17.36C269.551 16.8 271.285 16.52 273.445 16.52H279.645V19.84H273.805C272.098 19.84 270.951 20.12 270.365 20.68C269.778 21.2133 269.485 21.88 269.485 22.68C269.485 23.5866 269.845 24.3066 270.565 24.84C271.285 25.3733 272.285 25.64 273.565 25.64C274.791 25.64 275.885 25.36 276.845 24.8C277.831 24.24 278.538 23.4133 278.965 22.32L279.805 25.32C279.325 26.5733 278.458 27.5466 277.205 28.24C275.978 28.9333 274.418 29.28 272.525 29.28Z" fill="#111111"/>
<path d="M296.982 29.28C295.195 29.28 293.475 29.0533 291.822 28.6C290.195 28.12 288.902 27.5466 287.942 26.88L289.862 23.08C290.822 23.6933 291.968 24.2 293.302 24.6C294.635 25 295.968 25.2 297.302 25.2C298.875 25.2 300.008 24.9866 300.702 24.56C301.422 24.1333 301.782 23.56 301.782 22.84C301.782 22.2533 301.542 21.8133 301.062 21.52C300.582 21.2 299.955 20.96 299.182 20.8C298.408 20.64 297.542 20.4933 296.582 20.36C295.648 20.2266 294.702 20.0533 293.742 19.84C292.808 19.6 291.955 19.2666 291.182 18.84C290.408 18.3866 289.782 17.7866 289.302 17.04C288.822 16.2933 288.582 15.3066 288.582 14.08C288.582 12.72 288.968 11.5466 289.742 10.56C290.515 9.54664 291.595 8.77331 292.982 8.23997C294.395 7.67998 296.062 7.39998 297.982 7.39998C299.422 7.39998 300.875 7.55998 302.342 7.87998C303.808 8.19998 305.022 8.65331 305.982 9.23998L304.062 13.04C303.048 12.4266 302.022 12.0133 300.982 11.8C299.968 11.56 298.955 11.44 297.942 11.44C296.422 11.44 295.288 11.6666 294.542 12.12C293.822 12.5733 293.462 13.1466 293.462 13.84C293.462 14.48 293.702 14.96 294.182 15.28C294.662 15.6 295.288 15.8533 296.062 16.04C296.835 16.2266 297.688 16.3866 298.622 16.52C299.582 16.6266 300.528 16.8 301.462 17.04C302.395 17.28 303.248 17.6133 304.022 18.04C304.822 18.44 305.462 19.0133 305.942 19.76C306.422 20.5066 306.662 21.48 306.662 22.68C306.662 24.0133 306.262 25.1733 305.462 26.16C304.688 27.1466 303.582 27.92 302.142 28.48C300.702 29.0133 298.982 29.28 296.982 29.28Z" fill="#111111"/>
<path d="M319.007 29.28C316.661 29.28 314.847 28.68 313.567 27.48C312.287 26.2533 311.647 24.4533 311.647 22.08V2.91998H316.647V21.96C316.647 22.9733 316.901 23.76 317.407 24.32C317.941 24.88 318.674 25.16 319.607 25.16C320.727 25.16 321.661 24.8666 322.407 24.28L323.807 27.84C323.221 28.32 322.501 28.68 321.647 28.92C320.794 29.16 319.914 29.28 319.007 29.28ZM308.127 11.8V7.79998H322.367V11.8H308.127Z" fill="#111111"/>
<path d="M14.3509 1.81579C14.9789 0.728071 16.5489 0.72807 17.1769 1.81579L31.3068 26.2895C31.9348 27.3772 31.1498 28.7368 29.8938 28.7368H1.63401C0.378022 28.7368 -0.406971 27.3772 0.221024 26.2895L14.3509 1.81579Z" fill="#30A9DE"/>
<path d="M38.2632 3C38.2632 1.89543 39.1586 1 40.2632 1H64C65.1046 1 66 1.89543 66 3V26.7368C66 27.8414 65.1046 28.7368 64 28.7368H40.2632C39.1586 28.7368 38.2632 27.8414 38.2632 26.7368V3Z" fill="#FF7F50"/>
</g>
<defs>
<clipPath id="clip0_5_30">
<rect width="324" height="30" fill="white"/>
</clipPath>
</defs>
</svg>
